HIERARCHY
ROOT Hips
{
	OFFSET 0.00 0.00 0.00
	CHANNELS 6 Xposition Yposition Zposition Xrotation Yrotation Zrotation
	JOINT RightUpLeg
	{
		OFFSET -3.76699 0.00000 0.00000
		CHANNELS 3 Xrotation Yrotation Zrotation
		JOINT RightLeg
		{
			OFFSET 0.00000 -18.01768 0.00000
			CHANNELS 3 Xrotation Yrotation Zrotation
			JOINT RightFoot
			{
				OFFSET 0.00000 -16.88108 0.00000
				CHANNELS 3 Xrotation Yrotation Zrotation
				JOINT RightToeBase
				{
					OFFSET 0.00000 -1.49359 5.57418
					CHANNELS 3 Xrotation Yrotation Zrotation
					End Site
					{
						OFFSET 0.00000 0.00000 2.95275
					}
				}
			}
		}
	}
	JOINT LeftUpLeg
	{
		OFFSET 3.76699 0.00000 0.00000
		CHANNELS 3 Xrotation Yrotation Zrotation
		JOINT LeftLeg
		{
			OFFSET 0.00000 -18.01768 0.00000
			CHANNELS 3 Xrotation Yrotation Zrotation
			JOINT LeftFoot
			{
				OFFSET 0.00000 -16.88108 0.00000
				CHANNELS 3 Xrotation Yrotation Zrotation
				JOINT LeftToeBase
				{
					OFFSET 0.00000 -1.49359 5.57418
					CHANNELS 3 Xrotation Yrotation Zrotation
					End Site
					{
						OFFSET 0.00000 0.00000 2.95275
					}
				}
			}
		}
	}
	JOINT Spine
	{
		OFFSET 0.00000 7.77970 0.00000
		CHANNELS 3 Xrotation Yrotation Zrotation
		JOINT RightShoulder
		{
			OFFSET 0.00000 10.94176 0.00000
			CHANNELS 3 Xrotation Yrotation Zrotation
			JOINT RightArm
			{
				OFFSET -7.70894 0.00000 0.00000
				CHANNELS 3 Xrotation Yrotation Zrotation
				JOINT RightForeArm
				{
					OFFSET -11.52135 0.00000 0.00000
					CHANNELS 3 Yrotation Zrotation Xrotation
					JOINT RightHand
					{
						OFFSET -10.17590 0.00000 0.00000
						CHANNELS 3 Xrotation Yrotation Zrotation
						End Site
						{
							OFFSET -3.93700 0.00000 0.00000
						}
						JOINT RightHandThumb1
						{
							OFFSET 0.00000 0.00000 0.00000
							CHANNELS 3 Xrotation Zrotation Yrotation
							End Site
							{
								OFFSET 0.00000 0.00000 3.93700
							}
						}
					}
				}
			}
		}
		JOINT LeftShoulder
		{
			OFFSET 0.00000 10.94176 0.00000
			CHANNELS 3 Xrotation Yrotation Zrotation
			JOINT LeftArm
			{
				OFFSET 7.70894 0.00000 0.00000
				CHANNELS 3 Xrotation Yrotation Zrotation
				JOINT LeftForeArm
				{
					OFFSET 11.52135 0.00000 0.00000
					CHANNELS 3 Yrotation Zrotation Xrotation
					JOINT LeftHand
					{
						OFFSET 10.17590 0.00000 0.00000
						CHANNELS 3 Xrotation Yrotation Zrotation
						End Site
						{
							OFFSET 3.93700 0.00000 0.00000
						}
						JOINT LeftHandThumb1
						{
							OFFSET 0.00000 0.00000 0.00000
							CHANNELS 3 Xrotation Zrotation Yrotation
							End Site
							{
								OFFSET 0.00000 0.00000 3.93700
							}
						}
					}
				}
			}
		}
		JOINT Head
		{
			OFFSET 0.00000 16.64604 0.00000
			CHANNELS 3 Xrotation Yrotation Zrotation
			End Site
			{
				OFFSET 0.00000 4.52755 0.00000
			}
		}
	}
}
MOTION
Frames: 9
Frame Time: 0.008333
 3.7194 37.2237 5.6980 -5.3316 -5.2099 2.6814 11.8064 -4.5206 -0.6624 -3.7873 0.0000 -0.0000 -9.9779 -22.0353 5.4257 14.7189 -0.0000 0.0000 9.9209 -2.7180 -3.8753 -1.8942 -0.0000 0.0000 -4.9597 22.8942 -8.7476 9.1895 -0.0000 0.0000 11.4230 -4.0331 -1.6863 29.5353 -7.7159 -7.7338 -11.6514 34.5799 64.1916 62.2341 0.0000 7.0974 0.0536 -0.8960 3.4227 32.8623 0.0000 -24.3270 31.6409 23.0465 2.2295 -59.2443 10.8315 -55.1699 -80.8548 -0.0000 6.7063 -11.2907 38.1069 17.9272 33.1476 -0.0000 26.2537 15.9007 14.4238 -2.9076
 3.7055 37.2244 5.7041 -5.3769 -5.2785 2.6694 11.8358 -4.4809 -0.6439 -3.7401 -0.0000 -0.0000 -10.0039 -22.0129 5.4003 14.7167 0.0000 0.0000 9.9428 -2.7251 -3.8600 -1.8190 0.0000 0.0000 -5.0043 22.9465 -8.7271 9.2087 0.0000 -0.0000 11.4876 -4.1218 -1.6250 29.6312 -7.7297 -7.7070 -11.5565 34.8758 64.2808 61.9392 0.0000 7.1078 0.0486 -0.9241 3.0133 32.8623 0.0000 -24.3270 31.5878 22.9867 2.2239 -59.1358 10.8127 -55.3269 -80.5453 -0.0000 6.5345 -11.3553 37.6318 18.2062 33.1476 -0.0000 26.2537 15.9572 14.5970 -3.0380
 3.6905 37.2248 5.7109 -5.4231 -5.3516 2.6562 11.8700 -4.4363 -0.6273 -3.6984 0.0000 0.0000 -10.0313 -21.9922 5.3979 14.7345 -0.0000 0.0000 9.9678 -2.7073 -3.8431 -1.7391 -0.0000 -0.0000 -5.0400 22.9903 -8.7306 9.1438 -0.0000 0.0000 11.5500 -4.2301 -1.5643 29.7289 -7.7306 -7.6935 -11.4701 35.1683 64.3481 61.6247 0.0000 7.1067 0.0475 -0.8746 3.1074 32.8623 0.0000 -24.3270 31.5745 22.9558 2.1907 -59.0157 10.7439 -55.4690 -80.2281 -0.0000 6.3328 -11.3893 37.2340 18.4136 33.1476 -0.0000 26.2537 15.9943 14.7544 -3.1817
 3.6748 37.2249 5.7170 -5.4672 -5.4078 2.6477 11.9003 -4.4542 -0.6083 -3.6522 0.0000 0.0000 -10.0537 -21.9265 5.3873 14.7255 0.0000 -0.0000 9.9734 -2.6921 -3.8304 -1.6315 -0.0000 0.0000 -5.1031 23.0381 -8.6980 9.2047 -0.0000 -0.0000 11.6072 -4.3210 -1.5086 29.8217 -7.7706 -7.6498 -11.3850 35.4699 64.3955 61.2736 0.0000 6.9336 0.0445 -0.8257 3.0845 32.8623 0.0000 -24.3270 31.5476 22.8672 2.1934 -58.8917 10.7414 -55.5834 -79.9880 -0.0000 6.1537 -11.4688 37.5393 18.4166 33.1476 -0.0000 26.2537 16.0351 14.9041 -3.2872
 3.6576 37.2254 5.7218 -5.5058 -5.4779 2.6369 11.9213 -4.5140 -0.5852 -3.6094 0.0000 -0.0000 -10.0727 -21.8066 5.3867 14.7300 -0.0000 -0.0000 9.9715 -2.6536 -3.8180 -1.5115 0.0000 0.0000 -5.1741 23.0782 -8.6406 9.2039 -0.0000 -0.0000 11.6649 -4.4272 -1.4537 29.8756 -7.7859 -7.6202 -11.2666 35.6594 64.4675 60.9894 0.0000 7.0437 0.0567 -1.0202 3.1791 32.8623 0.0000 -24.3270 31.5938 22.8242 2.1392 -58.8521 10.7268 -55.7076 -79.6682 -0.0000 6.0206 -11.7743 37.0795 19.0713 33.1476 -0.0000 26.2537 16.0523 15.0460 -3.3918
 3.6427 37.2251 5.7293 -5.5626 -5.5443 2.6361 11.9771 -4.4796 -0.5786 -3.5882 -0.0000 0.0000 -10.1002 -21.7789 5.3435 14.6881 -0.0000 0.0000 9.9897 -2.6698 -3.8177 -1.3957 0.0000 0.0000 -5.2094 23.1209 -8.5516 9.0334 -0.0000 0.0000 11.7400 -4.5433 -1.4053 29.9198 -7.7903 -7.5971 -11.1514 35.7990 64.5321 60.6870 0.0000 7.0278 0.0547 -0.9594 3.2661 32.8623 0.0000 -24.3270 31.6313 22.7641 2.1026 -58.7642 10.7256 -55.8033 -79.4176 -0.0000 5.6308 -11.9102 36.9011 19.3552 33.1476 -0.0000 26.2537 16.0484 15.2076 -3.5011
 3.6277 37.2250 5.7332 -5.5974 -5.5995 2.6266 11.9967 -4.4899 -0.5607 -3.5453 0.0000 -0.0000 -10.1244 -21.7188 5.3609 14.7015 -0.0000 -0.0000 9.9806 -2.7093 -3.7996 -1.2941 -0.0000 0.0000 -5.2906 23.2602 -8.6109 9.1534 0.0000 -0.0000 11.7955 -4.6593 -1.3356 30.0024 -7.8258 -7.5552 -11.1191 35.9727 64.5871 60.3192 0.0000 7.0507 0.0616 -1.0280 3.4292 32.8623 0.0000 -24.3270 31.6516 22.6890 2.0610 -58.6474 10.7129 -55.8877 -79.1812 -0.0000 5.2456 -11.9725 37.0026 19.4092 33.1476 -0.0000 26.2537 16.0559 15.3737 -3.5931
 3.6121 37.2244 5.7377 -5.6332 -5.6653 2.6197 12.0284 -4.4878 -0.5438 -3.5285 -0.0000 -0.0000 -10.1408 -21.6597 5.3542 14.7450 -0.0000 0.0000 9.9648 -2.7290 -3.7914 -1.1632 0.0000 -0.0000 -5.3673 23.3456 -8.5430 9.1940 -0.0000 0.0000 11.8505 -4.8095 -1.2709 30.0227 -7.8306 -7.5591 -10.9943 36.1175 64.6540 59.9868 0.0000 6.8048 0.0452 -0.8363 3.0928 32.8623 0.0000 -24.3270 31.7319 22.6594 1.9650 -58.5647 10.6816 -55.9678 -78.9354 -0.0000 4.7610 -12.0440 36.7138 19.6414 33.1476 -0.0000 26.2537 16.0486 15.5937 -3.6907
 3.5944 37.2244 5.7443 -5.6888 -5.7475 2.5994 12.0649 -4.5077 -0.5198 -3.4697 -0.0000 -0.0000 -10.1633 -21.5744 5.3535 14.7088 0.0000 -0.0000 9.9826 -2.7732 -3.7708 -1.0511 0.0000 0.0000 -5.4396 23.4848 -8.4975 9.1555 0.0000 -0.0000 11.9273 -4.9205 -1.1991 30.0469 -7.8591 -7.5420 -10.9502 36.1811 64.7441 59.6473 0.0000 6.8754 0.0545 -0.8839 3.5271 32.8623 0.0000 -24.3270 31.7890 22.6073 1.9044 -58.4569 10.6968 -56.0633 -78.6802 -0.0000 4.4524 -12.1735 36.1149 20.1027 33.1476 -0.0000 26.2537 16.0362 15.7425 -3.7828
